# xmcd
#
# Track frame offsets:
#	150
#	15863
#	35045
#	54884
#	81229
#	102380
#	126344
#	143791
#	164830
#	190724
#	214762
#	246319
#	272663
#	272964
#	273266
#	273567
#	273868
#	274169
#	274470
#
# Disc length: 3906 seconds
#
# Revision: 2
# Processed by: cddbd v1.5.1PL0 Copyright (c) Steve Scherf et al.
# Submitted via: audiograbber 1.83.01
#
DISCID=2a0f4013
DTITLE=Charlie A'Court - Color Me Gone
DYEAR=2002
DGENRE=Blues
TTITLE0=You've Got A Friend In Me
TTITLE1=Carolina
TTITLE2=Bridges To Burn
TTITLE3=When The Night Comes
TTITLE4=I'd Do This For You
TTITLE5=Alone
TTITLE6=Lady Woman
TTITLE7=All I Need
TTITLE8=Color Me Gone
TTITLE9=I'm Coming Home
TTITLE10=Hello Love
TTITLE11=Be My Angel
TTITLE12=(null)
TTITLE13=(null)
TTITLE14=(null)
TTITLE15=(null)
TTITLE16=(null)
TTITLE17=(null)
TTITLE18=On Your Mind
EXTD=Freeman Music Productions (FMP) \nLifeline Entertainment Group\n** Bonus H
EXTD=idden Track at end of cd - "On Your Mind" **
EXTT0=
EXTT1=
EXTT2=
EXTT3=
EXTT4=
EXTT5=
EXTT6=
EXTT7=
EXTT8=
EXTT9=
EXTT10=
EXTT11=
EXTT12=
EXTT13=
EXTT14=
EXTT15=
EXTT16=
EXTT17=
EXTT18=
PLAYORDER=
